<?xml version="1.0" encoding="UTF-8" standalone="no"?>
<!-- Created with Inkscape (http://www.inkscape.org/) -->

<svg
   xmlns:dc="http://purl.org/dc/elements/1.1/"
   xmlns:cc="http://creativecommons.org/ns#"
   xmlns:rdf="http://www.w3.org/1999/02/22-rdf-syntax-ns#"
   xmlns:svg="http://www.w3.org/2000/svg"
   xmlns="http://www.w3.org/2000/svg"
   xmlns:sodipodi="http://sodipodi.sourceforge.net/DTD/sodipodi-0.dtd"
   xmlns:inkscape="http://www.inkscape.org/namespaces/inkscape"
   sodipodi:docname="exploration-2.svg"
   inkscape:version="0.92.3 (2405546, 2018-03-11)"
   id="svg8"
   version="1.1"
   viewBox="0 0 100.0 100.0"
   height="100.0mm"
   width="100.0mm">
  <sodipodi:namedview
     fit-margin-bottom="0"
     fit-margin-right="0"
     fit-margin-left="0"
     fit-margin-top="0"
     inkscape:window-maximized="1"
     inkscape:window-y="27"
     inkscape:window-x="0"
     inkscape:window-height="1025"
     inkscape:window-width="1920"
     showgrid="true"
     inkscape:current-layer="g916"
     inkscape:document-units="mm"
     inkscape:cy="135.58248"
     inkscape:cx="257.83928"
     inkscape:zoom="1.4"
     inkscape:pageshadow="2"
     inkscape:pageopacity="0.0"
     borderopacity="1.0"
     bordercolor="#666666"
     pagecolor="#ffffff"
     id="base"
     borderlayer="true">
    <inkscape:grid
       id="grid908"
       units="mm"
       type="xygrid"
       empspacing="1"
       spacingy="2.54"
       spacingx="2.54" />
  </sodipodi:namedview>
  <defs
     id="defs2" />
  <metadata
     id="metadata5">
    <rdf:RDF>
      <cc:Work
         rdf:about="">
        <dc:format>image/svg+xml</dc:format>
        <dc:type
           rdf:resource="http://purl.org/dc/dcmitype/StillImage" />
        <dc:title />
      </cc:Work>
    </rdf:RDF>
  </metadata>
  <g
     id="g914"
     sodipodi:insensitive="true"
     inkscape:groupmode="layer"
     inkscape:label="[fixed] BG">
    <rect
       id="rect912"
       style="stroke:none;fill-opacity:1;fill:#FFFFFF"
       height="100.0"
       width="100.0"
       y="0"
       x="0" />
  </g>
  <g
     id="g916"
     inkscape:groupmode="layer"
     inkscape:label="Edge.Cuts">
    <path
       style="fill:none;stroke:#000000;stroke-width:0.26458332px;stroke-linecap:butt;stroke-linejoin:miter;stroke-opacity:1"
       d="m 42.900296,45.193452 0.940482,0.26002 0.907089,0.283136 0.872415,0.305006 0.83646,0.325631 0.799225,0.34501 0.760711,0.363142 0.720915,0.380029 0.679839,0.395671 0.637483,0.410066 0.593847,0.423217 0.548929,0.43512 0.502732,0.445778 0.455254,0.455191 0.406497,0.463358 0.356458,0.470279 0.305138,0.475953 0.25254,0.480384 0.19866,0.483566 0.143501,0.485505 0.08706,0.486197 0.02934,0.485643 -0.02966,0.483844 -0.03736,0.240857 -0.05259,0.239941 -0.06798,0.238868 -0.08353,0.237639 -0.09924,0.236256 -0.115109,0.234715 -0.27847,0.464188 -0.343873,0.45616 -0.410557,0.446886 -0.47852,0.436365 -0.547764,0.424601 -0.618289,0.411588 -0.690094,0.397332 -0.357155,0.178989 -0.345177,0.147784 -0.333403,0.117487 -0.321832,0.0881 -0.310465,0.05962 -0.2993,0.03205 -0.288339,0.0054 -0.277581,-0.02037 -0.267027,-0.04521 -0.256676,-0.06915 -0.246528,-0.09218 -0.236583,-0.114304 -0.226842,-0.135517 -0.217304,-0.155821 -0.20797,-0.175216 -0.198838,-0.193705 -0.18991,-0.211283 -0.181186,-0.227955 -0.172664,-0.243717 -0.164346,-0.258571 -0.30455,-0.558071 -0.273718,-0.606586 -0.244511,-0.647836 -0.216932,-0.681817 -0.190978,-0.708533 -0.166651,-0.72798 -0.14395,-0.740161 -0.122875,-0.745075 -0.103428,-0.742722 -0.08561,-0.733101 -0.124254,-1.408275 -0.07249,-1.282591 -0.03373,-1.09877 -0.008,-0.856814 0.0092,-0.755214 v 0"
       id="path1067"
       inkscape:connector-curvature="0" />
    <path
       style="fill:none;stroke:#000000;stroke-width:0.26458332px;stroke-linecap:butt;stroke-linejoin:miter;stroke-opacity:1"
       d="m 19.654698,19.869075 1.160867,-0.396606 1.178541,-0.357783 1.195065,-0.320004 1.210438,-0.283267 1.224661,-0.247572 1.237733,-0.212919 1.249654,-0.17931 1.260425,-0.146742 1.270045,-0.115217 1.278514,-0.08474 1.285833,-0.05529 1.292002,-0.0269 1.297019,4.58e-4 1.300887,0.02677 1.303603,0.05204 1.305168,0.07627 1.305584,0.09945 1.304849,0.121596 1.302963,0.142697 1.299926,0.162754 1.295739,0.181769 1.290401,0.199742 1.283913,0.216673 1.276273,0.23256 1.267485,0.247406 1.257543,0.261209 2.480665,0.559657 2.427097,0.602359 2.364323,0.636722 2.292346,0.662744 2.211163,0.680428 2.120776,0.689771 2.021182,0.690774 1.912386,0.683438 1.794383,0.667762 1.667177,0.643747 1.530764,0.61139 1.385147,0.570696 1.230326,0.521661 1.959368,0.862858 1.229622,0.566641 0.426238,0.203707 0.3263,0.247678 0.366349,0.309182 0.464903,0.432375 0.535774,0.555291 0.285812,0.323652 0.293148,0.354278 0.297024,0.384868 0.29744,0.415425 0.294394,0.445945 0.287888,0.476433 0.277923,0.506885 0.264495,0.537302 0.247609,0.567685 0.227261,0.598034 0.203453,0.628347 0.176184,0.658627 0.145455,0.688871 0.111266,0.719081 0.07362,0.749257 0.03251,0.779397 -0.01206,0.809503 -0.0601,0.839575 -0.111589,0.869612 -0.166541,0.899614 -0.224954,0.929582 -0.286827,0.959515 -0.172869,0.493085 -0.199074,0.50438 -0.224353,0.515063 -0.248706,0.525138 -0.272133,0.534602 -0.294635,0.543457 -0.653072,1.111038 -0.731972,1.139136 -0.803464,1.162356 -0.867553,1.180697 -0.924235,1.194158 -0.973513,1.20274 -1.015384,1.206443 -1.049851,1.205266 -1.076911,1.199211 -1.096567,1.188275 -1.108817,1.172461 -1.113662,1.151767 -1.111101,1.126194 -2.184898,2.156153 -2.08579,1.99531 -1.927439,1.795433 -1.709844,1.556522 -1.433006,1.278577 -1.09686,0.96157 -0.948632,0.816118 L 56.079263,70.331822 45.94773,62.367746 40.502142,58.056824 35.709891,54.226493 33.77124,52.655576 32.250892,51.401638 31.233835,50.53029 30.9406,50.258591 30.805059,50.107143 30.586403,49.611834 30.163164,48.536548 28.823637,44.983794 27.027881,40.124363 25.017299,34.633743 21.317266,24.460868 19.654762,19.869048 v 0"
       id="path1022"
       inkscape:connector-curvature="0" />
  </g>
  <g
     id="g918"
     inkscape:groupmode="layer"
     inkscape:label="B.Cu-disabled" />
  <g
     id="g920"
     inkscape:groupmode="layer"
     inkscape:label="B.Mask-disabled" />
  <g
     id="g922"
     inkscape:groupmode="layer"
     inkscape:label="B.Silk">
    <text
       transform="scale(-1,1)"
       id="text1002-1"
       y="36.851971"
       x="-50.973812"
       style="font-style:normal;font-variant:normal;font-weight:normal;font-stretch:normal;font-size:4.23333311px;line-height:1.25;font-family:'Helvetica Neue LT Std';-inkscape-font-specification:'Helvetica Neue LT Std';letter-spacing:0px;word-spacing:0px;fill:#000000;fill-opacity:1;stroke:none;stroke-width:0.26458332"
       xml:space="preserve"><tspan
         style="stroke-width:0.26458332"
         y="36.851971"
         x="-50.973812"
         id="tspan1000-1"
         sodipodi:role="line">Hello Back</tspan></text>
  </g>
  <g
     id="g924"
     inkscape:groupmode="layer"
     inkscape:label="F.Cu" />
  <g
     id="g926"
     inkscape:groupmode="layer"
     inkscape:label="F.Mask-disabled" />
  <g
     id="g928"
     inkscape:groupmode="layer"
     inkscape:label="F.Silk">
    <path
       style="fill:#000000;stroke:none;stroke-width:0.26458332px;stroke-linecap:butt;stroke-linejoin:miter;stroke-opacity:1"
       d="m 53.672618,35.177084 c -6.047619,15.497024 20.78869,23.8125 18.331846,12.851191 C 69.547617,37.066966 53.672618,35.177084 53.672618,35.177084 Z"
       id="path948"
       inkscape:connector-curvature="0" />
    <text
       id="text1002"
       y="29.69643"
       x="37.98661"
       style="font-style:normal;font-variant:normal;font-weight:normal;font-stretch:normal;font-size:4.23333311px;line-height:1.25;font-family:'Helvetica Neue LT Std';-inkscape-font-specification:'Helvetica Neue LT Std';letter-spacing:0px;word-spacing:0px;fill:#000000;fill-opacity:1;stroke:none;stroke-width:0.26458332"
       xml:space="preserve"><tspan
         style="stroke-width:0.26458332"
         y="29.69643"
         x="37.98661"
         id="tspan1000"
         sodipodi:role="line">Hello Front</tspan></text>
  </g>
  <g
     id="g930"
     inkscape:groupmode="layer"
     inkscape:label="Drill" />
</svg>
